<svg width="249" height="57" viewBox="0 0 249 57" fill="none" xmlns="http://www.w3.org/2000/svg">
<path d="M100.802 51.5V35.7455H106.537C108.295 35.7455 109.646 36.0677 110.591 36.7125C111.536 37.357 112.008 38.2652 112.008 39.437C112.008 40.2865 111.719 41.03 111.14 41.6672C110.569 42.3045 109.836 42.7475 108.943 42.9965V43.0405C110.063 43.1798 110.957 43.5935 111.623 44.282C112.297 44.9705 112.634 45.809 112.634 46.7977C112.634 48.2407 112.118 49.387 111.085 50.2365C110.052 51.0787 108.642 51.5 106.855 51.5H100.802ZM104.35 38.3603V42.0957H105.911C106.643 42.0957 107.218 41.92 107.635 41.5682C108.06 41.2095 108.273 40.7187 108.273 40.0962C108.273 38.939 107.408 38.3603 105.68 38.3603H104.35ZM104.35 44.7325V48.8852H106.273C107.093 48.8852 107.734 48.6947 108.196 48.314C108.664 47.933 108.899 47.413 108.899 46.754C108.899 46.124 108.668 45.6297 108.207 45.2707C107.753 44.9117 107.115 44.7325 106.295 44.7325H104.35ZM125.609 40.25L121.039 52.401C119.94 55.3232 118.285 56.7845 116.073 56.7845C115.231 56.7845 114.538 56.6892 113.996 56.4987V53.7302C114.458 54.0012 114.96 54.1367 115.502 54.1367C116.395 54.1367 117.018 53.7155 117.369 52.8732L117.963 51.478L113.392 40.25H117.237L119.336 47.0945C119.468 47.5192 119.57 48.021 119.643 48.5995H119.687C119.753 48.1747 119.874 47.6805 120.05 47.1165L122.17 40.25H125.609ZM133.563 51.5V35.7455H139.144C144.74 35.7455 147.538 38.3055 147.538 43.425C147.538 45.8787 146.772 47.838 145.242 49.3027C143.718 50.7675 141.686 51.5 139.144 51.5H133.563ZM137.112 38.635V48.6215H138.87C140.408 48.6215 141.612 48.1602 142.484 47.2372C143.363 46.3145 143.802 45.0582 143.802 43.469C143.802 41.9675 143.367 40.7882 142.495 39.9315C141.631 39.0672 140.415 38.635 138.848 38.635H137.112ZM163.248 51.5H158.766L154.173 44.6555C154.086 44.5237 153.946 44.2345 153.756 43.7875H153.701V51.5H150.152V35.7455H153.701V43.1942H153.756C153.844 42.9892 153.99 42.6962 154.195 42.3155L158.546 35.7455H162.776L157.283 43.2602L163.248 51.5ZM173.784 51.5H170.499V49.885H170.455C169.701 51.1447 168.584 51.7747 167.104 51.7747C166.013 51.7747 165.152 51.467 164.523 50.8517C163.9 50.2292 163.589 49.4015 163.589 48.369C163.589 46.1862 164.881 44.9265 167.467 44.5895L170.521 44.183C170.521 42.9527 169.855 42.3375 168.522 42.3375C167.181 42.3375 165.907 42.7365 164.698 43.535V40.9202C165.182 40.6712 165.841 40.4515 166.676 40.261C167.518 40.0705 168.284 39.9752 168.972 39.9752C172.18 39.9752 173.784 41.5757 173.784 44.7762V51.5ZM170.521 46.9297V46.1717L168.478 46.4352C167.35 46.5817 166.786 47.0907 166.786 47.9625C166.786 48.358 166.921 48.6837 167.192 48.9402C167.471 49.1892 167.844 49.3137 168.313 49.3137C168.965 49.3137 169.496 49.0902 169.906 48.6435C170.316 48.1895 170.521 47.6182 170.521 46.9297ZM183.331 51.3682C182.818 51.6392 182.046 51.7747 181.013 51.7747C178.567 51.7747 177.344 50.504 177.344 47.9625V42.8097H175.52V40.25H177.344V37.822L180.804 36.8332V40.25H183.331V42.8097H180.804V47.3582C180.804 48.53 181.269 49.116 182.2 49.116C182.566 49.116 182.943 49.0097 183.331 48.7972V51.3682ZM184.562 51.2032V48.3907C185.133 48.735 185.701 48.9915 186.265 49.16C186.836 49.3282 187.374 49.4125 187.88 49.4125C188.495 49.4125 188.978 49.3282 189.33 49.16C189.689 48.9915 189.868 48.735 189.868 48.3907C189.868 48.1712 189.787 47.988 189.626 47.8415C189.465 47.695 189.256 47.567 189 47.457C188.751 47.3472 188.476 47.2482 188.176 47.1605C187.876 47.0725 187.587 46.9737 187.308 46.8637C186.861 46.6952 186.466 46.5157 186.122 46.3255C185.785 46.1277 185.499 45.9007 185.265 45.6442C185.038 45.388 184.862 45.0913 184.737 44.7545C184.62 44.4175 184.562 44.0182 184.562 43.557C184.562 42.927 184.697 42.385 184.968 41.931C185.246 41.4767 185.613 41.107 186.067 40.8212C186.528 40.5282 187.052 40.316 187.638 40.184C188.231 40.045 188.846 39.9752 189.484 39.9752C189.982 39.9752 190.487 40.0155 191 40.0962C191.512 40.1695 192.018 40.2792 192.516 40.4257V43.1065C192.076 42.85 191.604 42.6597 191.099 42.5352C190.6 42.4032 190.11 42.3375 189.626 42.3375C189.399 42.3375 189.183 42.3595 188.978 42.4032C188.78 42.44 188.605 42.4985 188.451 42.579C188.297 42.6522 188.176 42.7512 188.088 42.8757C188 42.993 187.956 43.1285 187.956 43.2822C187.956 43.4872 188.022 43.663 188.154 43.8095C188.286 43.956 188.458 44.0842 188.671 44.194C188.883 44.2967 189.117 44.3917 189.374 44.4797C189.637 44.5602 189.897 44.6445 190.154 44.7325C190.615 44.8935 191.033 45.0692 191.406 45.2597C191.78 45.4502 192.098 45.6735 192.362 45.93C192.633 46.1862 192.838 46.4865 192.977 46.8307C193.124 47.175 193.197 47.5852 193.197 48.0612C193.197 48.7277 193.05 49.299 192.757 49.7752C192.472 50.244 192.087 50.6285 191.604 50.9287C191.128 51.2217 190.575 51.434 189.945 51.566C189.322 51.705 188.674 51.7747 188 51.7747C186.763 51.7747 185.616 51.5842 184.562 51.2032ZM205.315 46.8637H197.976C198.093 48.497 199.122 49.3137 201.063 49.3137C202.301 49.3137 203.389 49.0207 204.326 48.4347V50.9397C203.286 51.4962 201.935 51.7747 200.272 51.7747C198.456 51.7747 197.046 51.273 196.042 50.2695C195.039 49.2587 194.537 47.8525 194.537 46.0507C194.537 44.183 195.079 42.7035 196.163 41.6122C197.247 40.521 198.58 39.9752 200.162 39.9752C201.803 39.9752 203.07 40.4625 203.964 41.4365C204.864 42.4107 205.315 43.7327 205.315 45.4025V46.8637ZM202.096 44.7325C202.096 43.121 201.444 42.3155 200.14 42.3155C199.584 42.3155 199.1 42.5462 198.69 43.0075C198.287 43.469 198.042 44.044 197.954 44.7325H202.096ZM218.092 40.25L213.906 51.5H209.951L205.963 40.25H209.676L211.632 47.1822C211.852 47.966 211.98 48.6325 212.016 49.182H212.06C212.112 48.6617 212.247 48.0172 212.467 47.2482L214.466 40.25H218.092ZM221.333 38.4702C220.747 38.4702 220.267 38.298 219.894 37.9537C219.52 37.6022 219.333 37.1737 219.333 36.6685C219.333 36.1485 219.52 35.7238 219.894 35.394C220.267 35.0645 220.747 34.8997 221.333 34.8997C221.926 34.8997 222.406 35.0645 222.772 35.394C223.146 35.7238 223.332 36.1485 223.332 36.6685C223.332 37.1957 223.146 37.628 222.772 37.9647C222.406 38.3017 221.926 38.4702 221.333 38.4702ZM223.047 51.5H219.575V40.25H223.047V51.5ZM234.495 51.0935C233.711 51.5475 232.579 51.7747 231.1 51.7747C229.371 51.7747 227.972 51.251 226.903 50.2035C225.834 49.1562 225.299 47.805 225.299 46.1497C225.299 44.238 225.87 42.733 227.013 41.6343C228.163 40.5283 229.697 39.9752 231.616 39.9752C232.942 39.9752 233.901 40.151 234.495 40.5027V43.447C233.769 42.905 232.96 42.634 232.067 42.634C231.07 42.634 230.279 42.927 229.693 43.513C229.115 44.0915 228.826 44.8935 228.826 45.919C228.826 46.915 229.104 47.6987 229.661 48.27C230.217 48.834 230.983 49.116 231.957 49.116C232.821 49.116 233.667 48.845 234.495 48.303V51.0935ZM247.579 51.5H244.119V45.106C244.119 43.458 243.518 42.634 242.317 42.634C241.702 42.634 241.203 42.8647 240.823 43.3262C240.442 43.7875 240.251 44.3735 240.251 45.084V51.5H236.78V34.8447H240.251V41.92H240.295C241.145 40.6235 242.298 39.9752 243.756 39.9752C246.305 39.9752 247.579 41.5135 247.579 44.5895V51.5Z" fill="white"/>
<path d="M0.674806 25.56V20.0913C1.66603 20.923 2.74268 21.5498 3.90478 21.9713C5.0669 22.3813 6.2404 22.5865 7.4253 22.5865C8.12028 22.5865 8.72413 22.5237 9.23683 22.3985C9.7609 22.273 10.1939 22.1022 10.5357 21.8857C10.8888 21.658 11.1509 21.3957 11.3218 21.0995C11.4927 20.792 11.5781 20.4615 11.5781 20.1085C11.5781 19.63 11.4414 19.2028 11.168 18.8268C10.8945 18.4508 10.5186 18.1033 10.0401 17.7843C9.57293 17.4653 9.01465 17.1575 8.36523 16.8613C7.71583 16.565 7.01513 16.2633 6.26318 15.9555C4.34913 15.158 2.91928 14.184 1.97363 13.0333C1.03939 11.8825 0.572266 10.4925 0.572266 8.86325C0.572266 7.58726 0.828613 6.49351 1.34131 5.58201C1.854 4.65926 2.549 3.90151 3.42628 3.30901C4.31495 2.71676 5.34033 2.28377 6.50245 2.01027C7.66455 1.72552 8.89503 1.58301 10.1939 1.58301C11.4699 1.58301 12.5978 1.66276 13.5776 1.82226C14.5688 1.97051 15.4803 2.20401 16.312 2.52301V7.63277C15.9018 7.34802 15.4518 7.09726 14.9619 6.88076C14.4834 6.66451 13.9878 6.48776 13.4751 6.35101C12.9624 6.20301 12.4497 6.09477 11.937 6.02627C11.4357 5.95802 10.9572 5.92377 10.5015 5.92377C9.87483 5.92377 9.30518 5.98652 8.79248 6.11177C8.27978 6.22577 7.84685 6.39101 7.49365 6.60751C7.14045 6.82401 6.86703 7.08601 6.67335 7.39351C6.47965 7.68976 6.3828 8.026 6.3828 8.40175C6.3828 8.812 6.49105 9.18226 6.70753 9.51276C6.924 9.83176 7.2316 10.1393 7.63038 10.4355C8.02913 10.7205 8.51335 11.0053 9.083 11.29C9.65268 11.5635 10.2964 11.8483 11.0142 12.1445C11.994 12.5548 12.8713 12.9933 13.646 13.4605C14.4321 13.9163 15.1043 14.4345 15.6626 15.0155C16.2209 15.5967 16.6481 16.2633 16.9443 17.0153C17.2406 17.7558 17.3887 18.6215 17.3887 19.6128C17.3887 20.98 17.1266 22.1308 16.6026 23.065C16.0899 23.9878 15.3892 24.7397 14.5005 25.3207C13.6118 25.8905 12.575 26.3005 11.3901 26.5513C10.2166 26.802 8.97478 26.9272 7.66455 26.9272C6.32015 26.9272 5.0384 26.8133 3.81933 26.5855C2.61165 26.3575 1.56348 26.0158 0.674806 25.56ZM29.232 26.9272C26.3153 26.9272 24.0195 26.1127 22.3447 24.4835C20.6813 22.8427 19.8496 20.621 19.8496 17.8183C19.8496 14.9245 20.7155 12.663 22.4473 11.0338C24.179 9.39301 26.5203 8.57277 29.4713 8.57277C32.3765 8.57277 34.655 9.39301 36.3073 11.0338C37.9593 12.663 38.7852 14.822 38.7852 17.5107C38.7852 20.416 37.9307 22.7118 36.2217 24.398C34.524 26.0843 32.1943 26.9272 29.232 26.9272ZM29.3688 12.7085C28.0925 12.7085 27.1015 13.1473 26.395 14.0245C25.6888 14.9018 25.3355 16.1435 25.3355 17.75C25.3355 21.111 26.6913 22.7915 29.4028 22.7915C31.989 22.7915 33.2823 21.0655 33.2823 17.6132C33.2823 14.3435 31.9778 12.7085 29.3688 12.7085ZM55.5503 25.8678C54.3313 26.574 52.571 26.9272 50.2695 26.9272C47.5807 26.9272 45.4045 26.1127 43.7412 24.4835C42.0777 22.8542 41.246 20.752 41.246 18.1773C41.246 15.2035 42.1347 12.8623 43.912 11.1533C45.7007 9.43301 48.0877 8.57277 51.0727 8.57277C53.135 8.57277 54.6275 8.84627 55.5503 9.39302V13.9733C54.4223 13.13 53.1635 12.7085 51.7735 12.7085C50.224 12.7085 48.9935 13.1642 48.082 14.0757C47.182 14.9757 46.732 16.2233 46.732 17.8183C46.732 19.3677 47.165 20.587 48.0308 21.4755C48.8968 22.3527 50.0873 22.7915 51.6025 22.7915C52.947 22.7915 54.2628 22.37 55.5503 21.5267V25.8678ZM61.8393 6.23152C60.928 6.23152 60.1818 5.96376 59.6005 5.42826C59.0195 4.88126 58.729 4.21476 58.729 3.42876C58.729 2.61976 59.0195 1.95902 59.6005 1.44627C60.1818 0.933518 60.928 0.677263 61.8393 0.677263C62.7623 0.677263 63.5085 0.933518 64.078 1.44627C64.6593 1.95902 64.9497 2.61976 64.9497 3.42876C64.9497 4.24901 64.6593 4.92127 64.078 5.44527C63.5085 5.96952 62.7623 6.23152 61.8393 6.23152ZM64.5053 26.5H59.105V9.00001H64.5053V26.5ZM83.6117 26.5H78.502V23.9878H78.4335C77.26 25.9475 75.5225 26.9272 73.2212 26.9272C71.5235 26.9272 70.185 26.4488 69.205 25.4918C68.2368 24.5233 67.7525 23.2358 67.7525 21.6295C67.7525 18.2343 69.7633 16.2745 73.7853 15.7505L78.5363 15.1183C78.5363 13.204 77.4992 12.247 75.4257 12.247C73.3407 12.247 71.3585 12.868 69.4785 14.1098V10.0425C70.2305 9.65501 71.2557 9.31326 72.5547 9.01701C73.865 8.72076 75.0555 8.57277 76.1265 8.57277C81.1167 8.57277 83.6117 11.0623 83.6117 16.041V26.5ZM78.5363 19.3905V18.2115L75.3575 18.6215C73.6027 18.8495 72.7255 19.6412 72.7255 20.997C72.7255 21.6122 72.9363 22.1193 73.358 22.518C73.7908 22.9055 74.372 23.099 75.101 23.099C76.115 23.099 76.941 22.7518 77.579 22.0568C78.217 21.3503 78.5363 20.4615 78.5363 19.3905ZM93.2848 26.5H87.8842V0.591766H93.2848V26.5ZM130.079 26.5H124.508L114.408 11.102C113.815 10.202 113.405 9.52401 113.177 9.06826H113.109C113.2 9.93426 113.246 11.2558 113.246 13.0333V26.5H108.033V1.99327H113.98L123.705 16.9125C124.149 17.5848 124.559 18.2513 124.935 18.912H125.004C124.912 18.3425 124.867 17.2203 124.867 15.5455V1.99327H130.079V26.5ZM150.877 19.288H139.462C139.644 21.8287 141.244 23.099 144.264 23.099C146.189 23.099 147.881 22.6435 149.339 21.732V25.6285C147.722 26.4942 145.62 26.9272 143.033 26.9272C140.208 26.9272 138.014 26.1467 136.453 24.586C134.893 23.0137 134.112 20.8262 134.112 18.0235C134.112 15.1183 134.955 12.8168 136.641 11.1193C138.328 9.42152 140.401 8.57277 142.862 8.57277C145.414 8.57277 147.385 9.3305 148.775 10.8458C150.177 12.361 150.877 14.4175 150.877 17.0153V19.288ZM145.87 15.9728C145.87 13.4663 144.856 12.213 142.828 12.213C141.962 12.213 141.21 12.5718 140.572 13.2895C139.946 14.0073 139.564 14.9018 139.427 15.9728H145.87ZM164.669 26.295C163.872 26.7165 162.67 26.9272 161.063 26.9272C157.258 26.9272 155.355 24.9505 155.355 20.997V12.982H152.518V9.00001H155.355V5.22327L160.738 3.68502V9.00001H164.669V12.982H160.738V20.0572C160.738 21.88 161.462 22.7915 162.909 22.7915C163.478 22.7915 164.065 22.6262 164.669 22.296V26.295ZM193.072 9.00001L188.031 26.5H182.357L179.776 16.246C179.606 15.5625 179.509 14.8163 179.486 14.0073H179.383C179.303 14.896 179.19 15.6195 179.042 16.1778L176.273 26.5H170.667L165.728 9.00001H171.232L173.641 20.416C173.755 20.9515 173.84 21.601 173.897 22.3643H174C174.057 21.5668 174.16 20.8945 174.308 20.3478L177.316 9.00001H182.459L185.16 20.416C185.228 20.7008 185.308 21.3617 185.399 22.3985H185.518C185.575 21.7377 185.667 21.0768 185.792 20.416L188.065 9.00001H193.072ZM203.822 26.9272C200.905 26.9272 198.609 26.1127 196.934 24.4835C195.271 22.8427 194.439 20.621 194.439 17.8183C194.439 14.9245 195.305 12.663 197.037 11.0338C198.769 9.39301 201.11 8.57277 204.061 8.57277C206.966 8.57277 209.245 9.39301 210.897 11.0338C212.549 12.663 213.375 14.822 213.375 17.5107C213.375 20.416 212.521 22.7118 210.812 24.398C209.114 26.0843 206.784 26.9272 203.822 26.9272ZM203.958 12.7085C202.682 12.7085 201.691 13.1473 200.985 14.0245C200.278 14.9018 199.925 16.1435 199.925 17.75C199.925 21.111 201.281 22.7915 203.993 22.7915C206.579 22.7915 207.872 21.0655 207.872 17.6132C207.872 14.3435 206.567 12.7085 203.958 12.7085ZM228.294 13.8705C227.645 13.5175 226.887 13.3408 226.022 13.3408C224.848 13.3408 223.931 13.7738 223.27 14.6398C222.609 15.4943 222.279 16.662 222.279 18.143V26.5H216.878V9.00001H222.279V12.247H222.347C223.202 9.87725 224.74 8.69251 226.962 8.69251C227.531 8.69251 227.975 8.76076 228.294 8.89751V13.8705ZM248.358 26.5H241.881L236.292 17.8183H236.224V26.5H230.824V0.591766H236.224V17.0835H236.292L241.505 9.00001H247.913L241.642 17.2203L248.358 26.5Z" fill="white"/>
</svg>
